
<svg class="svg-icon" style="width: 1em;height: 1em;vertical-align: middle;fill: white;overflow: hidden;" viewBox="0 0 1024 1024" version="1.1" xmlns="http://www.w3.org/2000/svg"><path d="M736 192a64 64 0 0 1 64 64v452.928a96 96 0 0 1-34.56 73.728l-32 26.688a96 96 0 0 1-122.88 0l-32-26.688A96 96 0 0 1 544 708.928V256a64 64 0 0 1 64-64h128zM416 192a64 64 0 0 1 64 64v512a64 64 0 0 1-64 64H288a64 64 0 0 1-64-64V256a64 64 0 0 1 64-64h128z m191.968 512l0.032 18.016a32 32 0 0 0 11.52 24.576l32 26.688a32 32 0 0 0 40.96 0l32-26.688a32 32 0 0 0 11.52-24.576L735.968 704h-128zM416 256H288v96h64v64H288v64h64v64H288v64h64v64H288v96h128V256z m320 128h-128v256h128v-256z m0-128h-128v64h128V256z" fill="white" /></svg>
